<svg width="135" height="112" viewBox="0 0 135 112" fill="none" xmlns="http://www.w3.org/2000/svg">
<path d="M54 29C53.4477 29 53 28.5523 53 28V13C53 12.4477 53.4477 12 54 12H62C62.5523 12 63 12.4477 63 13V28C63 28.5523 62.5523 29 62 29H54Z" fill="black"/>
<rect x="52" y="20" width="5" height="67" rx="1" transform="rotate(-90 52 20)" fill="black"/>
<path d="M57.0667 2.42467C57.3956 1.57028 58.6044 1.57029 58.9333 2.42467L62.673 12.1408C62.9251 12.7958 62.4416 13.5 61.7397 13.5H54.2603C53.5584 13.5 53.0749 12.7958 53.327 12.1408L57.0667 2.42467Z" fill="black"/>
<rect width="80" height="10" rx="1" transform="matrix(-1 0 0 1 114 102)" fill="black"/>
<path d="M93 78.5C93 87.5908 104.953 97.9669 111.532 101.78C112.014 102.059 111.799 103 111.243 103H36.1006C35.6105 103 35.3983 102.369 35.7959 102.082C40.7679 98.4974 56.5 86.5156 56.5 78.5C56.5 69.5 48.5 63.5 36 60.5C23.7943 57.5706 1.57703 49.3971 0.537796 42.4967C0.496674 42.2237 0.7052 42 0.981339 42H45.5141C45.7903 42 46 41.7761 46 41.5V39.75C46 39.4739 46.2239 39.25 46.5 39.25H134C134.276 39.25 134.5 39.4739 134.5 39.75V44.5841C134.5 44.8251 134.335 45.0312 134.099 45.0795C131.765 45.5577 119.633 48.2597 107.5 55C94 62.5 93 67 93 78.5Z" fill="black"/>
</svg>
